<svg width="163" height="104" viewBox="0 0 163 104" fill="none" xmlns="http://www.w3.org/2000/svg">
<path d="M128.737 34.8862C138.173 34.8862 146.71 38.7093 152.776 45.0063C159.067 51.0783 162.887 59.6242 162.887 68.8447C162.887 78.2901 159.067 86.8359 152.776 92.908C146.71 99.2049 138.173 103.028 128.737 103.028C119.525 103.028 110.988 99.2049 104.697 92.908C98.6307 86.8359 94.8113 78.2901 94.8113 68.8447C94.8113 59.6242 98.6307 51.0783 104.697 45.0063C110.988 38.7093 119.525 34.8862 128.737 34.8862ZM146.935 50.8534C142.217 46.1307 135.926 43.432 128.737 43.432C121.772 43.432 115.256 46.1307 110.763 50.8534C106.045 55.5761 103.349 61.8731 103.349 68.8447C103.349 76.0412 106.045 82.3381 110.763 87.0608C115.256 91.7835 121.772 94.4822 128.737 94.4822C135.926 94.4822 142.217 91.7835 146.935 87.0608C151.428 82.3381 154.349 76.0412 154.349 68.8447C154.349 61.8731 151.428 55.5761 146.935 50.8534Z" fill="#808080"/>
<path d="M47.855 9.24863C45.6083 9.24863 43.8109 7.44951 43.5862 5.2006C43.5862 2.95169 45.3836 0.927675 47.6303 0.927675C52.7978 0.702784 57.5159 2.27702 61.3353 4.97571C65.3794 7.89929 68.3001 11.9473 69.8728 16.67V16.8949L80.2077 55.1264L108.516 7.22462C110.314 3.85126 113.459 1.60235 116.829 0.702784C120.424 -0.42167 124.243 -0.196779 127.613 1.37746C131.657 3.17658 134.353 6.32505 135.701 10.1482C137.05 13.7465 137.05 18.0194 135.252 21.8425C134.129 24.3163 132.331 26.3403 130.309 27.9146L130.085 28.1395C127.838 29.4888 125.367 30.3884 122.895 30.8382C122.671 30.8382 122.671 30.8382 122.446 30.8382H116.604C114.358 30.8382 112.336 28.8141 112.336 26.5652C112.336 24.3163 114.358 22.2923 116.604 22.2923H122.446C123.345 22.2923 124.243 21.8425 125.142 21.1678H125.367C126.49 20.4932 127.164 19.3687 127.613 18.2443C128.512 16.67 128.512 14.646 127.838 13.0718C127.164 11.2727 126.041 9.92331 124.243 9.02374C122.671 8.34907 120.873 8.34907 119.3 8.79885C117.728 9.24863 116.38 10.1482 115.706 11.4975L82.4544 67.7202C81.7804 68.8447 80.8817 69.5194 79.7583 69.7443C77.5116 70.4189 75.2649 69.0696 74.5909 66.8207L61.7846 18.9189C60.8859 15.9954 59.0886 13.5216 56.6172 11.7224C54.1458 10.1482 51.2251 9.02374 47.855 9.24863Z" fill="#FF6600"/>
<path d="M33.9254 34.8862C43.3616 34.8862 51.8991 38.7093 57.9652 45.0063C64.256 51.0783 67.8507 59.6242 67.8507 68.8447C67.8507 78.2901 64.256 86.8359 57.9652 92.908C51.8991 99.2049 43.3616 103.028 33.9254 103.028C24.4892 103.028 16.1763 99.2049 9.88554 92.908C3.81941 86.8359 0 78.2901 0 68.8447C0 59.6242 3.81941 51.0783 9.88554 45.0063C16.1763 38.7093 24.4892 34.8862 33.9254 34.8862ZM52.1237 50.8534C47.4056 46.1307 41.1148 43.432 33.9254 43.432C26.9606 43.432 20.4451 46.1307 15.9517 50.8534C11.2336 55.5761 8.31284 61.8731 8.31284 68.8447C8.31284 76.0412 11.2336 82.3381 15.9517 87.0608C20.4451 91.7835 26.9606 94.4822 33.9254 94.4822C41.1148 94.4822 47.4056 91.7835 52.1237 87.0608C56.6172 82.3381 59.5379 76.0412 59.5379 68.8447C59.5379 61.8731 56.6172 55.5761 52.1237 50.8534Z" fill="#808080"/>
</svg>
